# xmcd CD database file
#
# Track frame offsets:
#	183
#	18763
#	37270
#	53443
#	73343
#	89063
#	105255
#	119690
#	134153
#	152358
#	168508
#	183648
#	203178
#	217285
#	232275
#	247800
#	267095
#
# Disc length: 3753 seconds
#
# Revision: 0
# Processed by: cddbd v1.5.1PL2 Copyright (c) Steve Scherf et al.
# Submitted via: CDex 1.50beta9
#
DISCID=010ea711
DTITLE=Orchestra Aragon - 39 Anniversario
DYEAR=1989
DGENRE=Salsa
TTITLE0=El Son Del Pariente
TTITLE1=Si Sabes Bailar Mi Son
TTITLE2=Cuba Es Una Maravilla
TTITLE3=Oye, Baila Mi Onda
TTITLE4=Para Bailar Lo Mismo Me Da
TTITLE5=Que Onda Con Cha Onda
TTITLE6=Preguntame Como Estoy
TTITLE7=Con Su Permiso Dejeme Cruzar
TTITLE8=Sin Clave Y Bongo No Hay Son
TTITLE9=Mi Son Es Un Vacilon
TTITLE10=Sube Un Poquito Mas
TTITLE11=El Cerquillo
TTITLE12=Para Sentirme Mejor
TTITLE13=Maricusa Y Las Bermudas
TTITLE14=No Te, Enredes
TTITLE15=Vamos Para Oriente
TTITLE16=Ayer Te Dije Te Quiero
EXTD=YEAR: 1989
EXTT0=
EXTT1=
EXTT2=
EXTT3=
EXTT4=
EXTT5=
EXTT6=
EXTT7=
EXTT8=
EXTT9=
EXTT10=
EXTT11=
EXTT12=
EXTT13=
EXTT14=
EXTT15=
EXTT16=
PLAYORDER=
